<?xml version="1.0" standalone="no"?>
<!DOCTYPE svg PUBLIC "-//W3C//DTD SVG 20010904//EN"
 "http://www.w3.org/TR/2001/REC-SVG-20010904/DTD/svg10.dtd">
<svg version="1.0" xmlns="http://www.w3.org/2000/svg"
 width="199.000000pt" height="199.000000pt" viewBox="0 0 199.000000 199.000000"
 preserveAspectRatio="xMidYMid meet">
<metadata>
Created by potrace 1.11, written by Peter Selinger 2001-2013
</metadata>
<g transform="translate(0.000000,199.000000) scale(0.100000,-0.100000)"
fill="#000000" stroke="none">
<path d="M498 1983 c277 -2 727 -2 1000 0 273 1 47 2 -503 2 -550 0 -774 -1
-497 -2z"/>
<path d="M619 1656 c-139 -29 -294 -116 -373 -208 -79 -92 -123 -222 -113
-334 16 -173 114 -301 540 -714 l117 -114 208 48 c386 90 600 173 698 271 86
85 134 202 134 323 0 86 -14 141 -66 248 -34 71 -59 107 -116 165 -40 41 -98
88 -128 104 -50 27 -63 30 -150 30 -91 0 -99 -2 -181 -41 l-85 -41 -34 58
c-44 77 -121 153 -186 185 -65 32 -170 39 -265 20z m976 -514 c5 -36 3 -57 -5
-67 -16 -19 -50 -20 -50 -1 0 7 -3 34 -6 58 -5 39 -3 49 16 68 28 28 35 19 45
-58z m2 -234 c-5 -107 -32 -246 -49 -263 -7 -7 -8 4 -4 35 4 25 9 104 12 175
5 102 10 133 22 143 9 6 18 12 20 12 3 0 2 -46 -1 -102z"/>
</g>
</svg>
